<svg width="21" height="21" viewBox="0 0 21 21" fill="none" xmlns="http://www.w3.org/2000/svg">
<path d="M10.9328 15.8032C12.3162 15.8032 13.4953 15.3157 14.4703 14.3407C15.4453 13.3657 15.9328 12.1866 15.9328 10.8032C15.9328 9.41989 15.4453 8.24072 14.4703 7.26572C13.4953 6.29072 12.3162 5.80322 10.9328 5.80322C9.5495 5.80322 8.37033 6.29072 7.39533 7.26572C6.42033 8.24072 5.93283 9.41989 5.93283 10.8032C5.93283 12.1866 6.42033 13.3657 7.39533 14.3407C8.37033 15.3157 9.5495 15.8032 10.9328 15.8032ZM10.9328 20.8032C9.5495 20.8032 8.2495 20.5407 7.03283 20.0157C5.81616 19.4907 4.75783 18.7782 3.85783 17.8782C2.95783 16.9782 2.24533 15.9199 1.72033 14.7032C1.19533 13.4866 0.932831 12.1866 0.932831 10.8032C0.932831 9.41989 1.19533 8.11989 1.72033 6.90322C2.24533 5.68656 2.95783 4.62822 3.85783 3.72822C4.75783 2.82822 5.81616 2.11572 7.03283 1.59072C8.2495 1.06572 9.5495 0.803223 10.9328 0.803223C12.3162 0.803223 13.6162 1.06572 14.8328 1.59072C16.0495 2.11572 17.1078 2.82822 18.0078 3.72822C18.9078 4.62822 19.6203 5.68656 20.1453 6.90322C20.6703 8.11989 20.9328 9.41989 20.9328 10.8032C20.9328 12.1866 20.6703 13.4866 20.1453 14.7032C19.6203 15.9199 18.9078 16.9782 18.0078 17.8782C17.1078 18.7782 16.0495 19.4907 14.8328 20.0157C13.6162 20.5407 12.3162 20.8032 10.9328 20.8032ZM10.9328 18.8032C13.1662 18.8032 15.0578 18.0282 16.6078 16.4782C18.1578 14.9282 18.9328 13.0366 18.9328 10.8032C18.9328 8.56989 18.1578 6.67822 16.6078 5.12822C15.0578 3.57822 13.1662 2.80322 10.9328 2.80322C8.6995 2.80322 6.80783 3.57822 5.25783 5.12822C3.70783 6.67822 2.93283 8.56989 2.93283 10.8032C2.93283 13.0366 3.70783 14.9282 5.25783 16.4782C6.80783 18.0282 8.6995 18.8032 10.9328 18.8032Z" fill="#F3F4F8"/>
</svg>
