<svg width="16" height="16" viewBox="0 0 16 16" fill="none" xmlns="http://www.w3.org/2000/svg">
<path d="M12 13.3333L14.4909 10.8424C14.6035 10.7299 14.6667 10.5773 14.6667 10.4181V7C14.6667 6.44772 14.219 6 13.6667 6V6C13.1144 6 12.6667 6.44772 12.6667 7V10" stroke="#F3F4F8" stroke-width="1.5" stroke-linecap="round" stroke-linejoin="round"/>
<path d="M12 10.6667L12.572 10.0946C12.6326 10.034 12.6666 9.95189 12.6666 9.86624V9.86624C12.6666 9.74393 12.5975 9.63211 12.4881 9.57741L12.3938 9.53026C11.7605 9.21359 10.9956 9.33772 10.4949 9.83842L10.2524 10.0809C9.87734 10.456 9.66663 10.9647 9.66663 11.4951V13.3333" stroke="#F3F4F8" stroke-width="1.5" stroke-linecap="round" stroke-linejoin="round"/>
<path d="M4.00004 13.3333L1.50911 10.8424C1.39659 10.7299 1.33337 10.5773 1.33337 10.4181V7C1.33337 6.44772 1.78109 6 2.33337 6V6C2.88566 6 3.33337 6.44772 3.33337 7V10" stroke="#F3F4F8" stroke-width="1.5" stroke-linecap="round" stroke-linejoin="round"/>
<path d="M4.00004 10.6667L3.42796 10.0946C3.3674 10.034 3.33337 9.95189 3.33337 9.86624V9.86624C3.33337 9.74393 3.40248 9.63211 3.51188 9.57741L3.60619 9.53026C4.23952 9.21359 5.00443 9.33772 5.50512 9.83842L5.74759 10.0809C6.12266 10.456 6.33337 10.9647 6.33337 11.4951V13.3333" stroke="#F3F4F8" stroke-width="1.5" stroke-linecap="round" stroke-linejoin="round"/>
<path d="M9.11115 8H6.88893V6.44444H5.33337V4.22222H6.88893V2.66666H9.11115V4.22222H10.6667V6.44444H9.11115V8Z" stroke="#F3F4F8" stroke-width="1.5" stroke-linecap="round" stroke-linejoin="round"/>
</svg>
