<?xml version="1.0" encoding="UTF-8"?>
<svg width="65px" height="24px" viewBox="0 0 65 24" version="1.1" xmlns="http://www.w3.org/2000/svg" xmlns:xlink="http://www.w3.org/1999/xlink">
    <!-- Generator: Sketch 63.1 (92452) - https://sketch.com -->
    <title>Group 3</title>
    <desc>Created with Sketch.</desc>
    <defs>
        <polygon id="path-1" points="0 0 65 0 65 24 0 24"></polygon>
    </defs>
    <g id="Welcome" stroke="none" stroke-width="1" fill="none" fill-rule="evenodd">
        <g id="Mobile-Portrait" transform="translate(-128.000000, -13.000000)">
            <g id="Group-3" transform="translate(128.000000, 13.000000)">
                <mask id="mask-2" fill="white">
                    <use xlink:href="#path-1"></use>
                </mask>
                <g id="Clip-2"></g>
                <path d="M0.00165514432,13.479009 C0.489095145,16.8574686 3.64917943,19.04136 8.05310467,19.04136 C11.7755242,19.04136 15.5314605,17.1941536 15.5314605,13.0681041 C15.5314605,10.3290142 13.9454184,8.64185757 10.539959,7.75743755 L6.85312504,6.86555406 C6.0102428,6.67482119 5.59852565,6.19964756 5.59852565,5.4143257 C5.59852565,4.35741681 6.47575214,3.6483881 7.781661,3.6483881 C8.98412335,3.6483881 10.4009269,4.3188556 10.7733344,6.2000622 L15.373808,5.24183684 L15.3729804,5.23603193 C14.7523013,1.90898725 11.9853138,0 7.78248857,0 L7.781661,0 C3.38725284,0 0.547438982,2.30081891 0.547438982,5.8608894 C0.547438982,8.56888152 2.11651579,10.2601845 5.344461,11.0309941 L9.11819004,11.9527314 C10.1034147,12.1994402 10.5618897,12.677931 10.5618897,13.4595211 C10.5618897,14.5321862 9.61969876,15.2246294 8.16193041,15.2246294 C6.38265027,15.2246294 5.25797971,14.3227947 4.81936646,12.543174 L4.81564239,12.5303203 L0,13.4665699 L0.00165514432,13.479009 Z M60.6411774,18.6901627 L65,18.6901627 L65,14.3236239 L60.6411774,14.3236239 L60.6411774,18.6901627 Z M49.6071579,12.1339276 C49.6071579,13.8422307 50.7260354,15.1379704 52.3919382,15.1379704 C54.0309448,15.1379704 55.1907872,13.8691821 55.1907872,12.1339276 C55.1907872,10.3974293 54.0309448,9.12822639 52.3919382,9.12822639 C50.7260354,9.12822639 49.6071579,10.4235514 49.6071579,12.1339276 L49.6071579,12.1339276 Z M55.3447156,18.6901627 L55.1510637,17.2750078 C54.351629,18.3033067 53.1653044,19.0372136 51.3930586,19.0372136 C47.9147728,19.0372136 45.3161962,16.0058049 45.3161962,12.11983 C45.3161962,8.27407484 47.9011179,5.2289831 51.4062997,5.2289831 C53.1653044,5.2289831 54.3648702,5.9774023 55.1510637,7.00487198 L55.3447156,5.58971701 L59.1883745,5.58971701 L59.1883745,18.6901627 L55.3447156,18.6901627 Z M34.6707218,12.1339276 C34.6707218,13.8691821 35.8169092,15.1379704 37.4559159,15.1379704 C39.1358873,15.1379704 40.2547649,13.8422307 40.2547649,12.1339276 C40.2547649,10.4235514 39.1358873,9.12822639 37.4559159,9.12822639 C35.8169092,9.12822639 34.6707218,10.3974293 34.6707218,12.1339276 L34.6707218,12.1339276 Z M44.5461403,12.11983 C44.5461403,16.0058049 41.9475638,19.0372136 38.455623,19.0372136 C36.763238,19.0372136 35.6443604,18.3957707 34.8445119,17.4479113 L34.8445119,24 L30.6863756,24 L30.6863756,5.58971701 L34.5176209,5.58971701 L34.7112728,7.00487198 C35.5102937,5.9774023 36.6829635,5.2289831 38.455623,5.2289831 C41.9475638,5.2289831 44.5461403,8.27407484 44.5461403,12.11983 L44.5461403,12.11983 Z M20.6822696,10.7842853 L25.4403957,10.7842853 C25.1068841,9.46283819 24.3074494,8.78117549 23.0814013,8.78117549 C21.7887336,8.78117549 21.00254,9.48937494 20.6822696,10.7842853 L20.6822696,10.7842853 Z M29.6113594,12.1339276 C29.6113594,12.5610034 29.5844633,13.1485436 29.5314987,13.428838 L20.6690284,13.428838 C21.0290223,14.8709443 22.0287295,15.5248264 23.4678775,15.5248264 C24.4406885,15.5248264 25.4801192,15.1242873 26.3196911,14.3771121 L29.0117834,16.8873225 C27.6388411,18.263087 25.6936328,19.0372136 23.2543639,19.0372136 C19.1500197,19.0372136 16.3644119,16.300197 16.3644119,12.2135379 C16.3644119,8.10034208 19.0834002,5.2289831 23.0681601,5.2289831 C26.9457495,5.2289831 29.6113594,8.03358557 29.6113594,12.1339276 L29.6113594,12.1339276 Z" id="Fill-1" fill="#1D1D1B" mask="url(#mask-2)"></path>
            </g>
        </g>
    </g>
</svg>
